HIERARCHY
ROOT mixamorig1:Hips
{
	OFFSET -0.000023 3.007882 -99.754364
	CHANNELS 6 Xposition Yposition Zposition Xrotation Yrotation Zrotation
	JOINT mixamorig1:Spine
	{
		OFFSET 0.000000 -1.180207 -9.717224
		CHANNELS 3 Xrotation Yrotation Zrotation
		JOINT mixamorig1:Spine1
		{
			OFFSET 0.000000 -1.376932 -11.336823
			CHANNELS 3 Xrotation Yrotation Zrotation
			JOINT mixamorig1:Spine2
			{
				OFFSET 0.000000 -1.573653 -12.956345
				CHANNELS 3 Xrotation Yrotation Zrotation
				JOINT mixamorig1:Neck
				{
					OFFSET 0.000000 -1.770437 -14.575974
					CHANNELS 3 Xrotation Yrotation Zrotation
					JOINT mixamorig1:Head
					{
						OFFSET 0.000000 1.972157 -6.720200
						CHANNELS 3 Xrotation Yrotation Zrotation
						JOINT mixamorig1:HeadTop_End
						{
							OFFSET 0.000000 6.162764 -20.999847
							CHANNELS 3 Xrotation Yrotation Zrotation
							End Site
							{
								OFFSET 0.000000 0.000000 -21.885452
							}
						}
					}
				}
				JOINT mixamorig1:LeftShoulder
				{
					OFFSET 6.140116 -1.799544 -12.877853
					CHANNELS 3 Xrotation Yrotation Zrotation
					JOINT mixamorig1:LeftArm
					{
						OFFSET 12.545031 -0.058010 3.431427
						CHANNELS 3 Xrotation Yrotation Zrotation
						JOINT mixamorig1:LeftForeArm
						{
							OFFSET 25.447281 -1.505625 1.876373
							CHANNELS 3 Xrotation Yrotation Zrotation
							JOINT mixamorig1:LeftHand
							{
								OFFSET 23.367504 0.971305 -0.877640
								CHANNELS 3 Xrotation Yrotation Zrotation
								JOINT mixamorig1:LeftHandThumb1
								{
									OFFSET 3.575478 3.039434 1.761887
									CHANNELS 3 Xrotation Yrotation Zrotation
									JOINT mixamorig1:LeftHandThumb2
									{
										OFFSET 2.860405 2.431552 1.409454
										CHANNELS 3 Xrotation Yrotation Zrotation
										JOINT mixamorig1:LeftHandThumb3
										{
											OFFSET 2.578941 1.750709 1.801514
											CHANNELS 3 Xrotation Yrotation Zrotation
											JOINT mixamorig1:LeftHandThumb4
											{
												OFFSET 2.408989 1.064221 1.461151
												CHANNELS 3 Xrotation Yrotation Zrotation
												End Site
												{
													OFFSET 2.176476 1.440013 1.503357
												}
											}
										}
									}
								}
								JOINT mixamorig1:LeftHandIndex1
								{
									OFFSET 11.357018 4.439679 1.306473
									CHANNELS 3 Xrotation Yrotation Zrotation
									JOINT mixamorig1:LeftHandIndex2
									{
										OFFSET 3.215240 0.624045 0.390930
										CHANNELS 3 Xrotation Yrotation Zrotation
										JOINT mixamorig1:LeftHandIndex3
										{
											OFFSET 2.938980 0.560646 0.735489
											CHANNELS 3 Xrotation Yrotation Zrotation
											JOINT mixamorig1:LeftHandIndex4
											{
												OFFSET 2.552437 0.483288 0.779205
												CHANNELS 3 Xrotation Yrotation Zrotation
												End Site
												{
													OFFSET 2.555870 0.467434 0.777603
												}
											}
										}
									}
								}
								JOINT mixamorig1:LeftHandMiddle1
								{
									OFFSET 12.195602 2.108765 0.657242
									CHANNELS 3 Xrotation Yrotation Zrotation
									JOINT mixamorig1:LeftHandMiddle2
									{
										OFFSET 3.379944 0.236206 0.547394
										CHANNELS 3 Xrotation Yrotation Zrotation
										JOINT mixamorig1:LeftHandMiddle3
										{
											OFFSET 3.043900 0.195068 0.829651
											CHANNELS 3 Xrotation Yrotation Zrotation
											JOINT mixamorig1:LeftHandMiddle4
											{
												OFFSET 2.806625 0.188473 0.600723
												CHANNELS 3 Xrotation Yrotation Zrotation
												End Site
												{
													OFFSET 2.806618 0.188510 0.600739
												}
											}
										}
									}
								}
								JOINT mixamorig1:LeftHandRing1
								{
									OFFSET 12.563576 -0.154891 0.458878
									CHANNELS 3 Xrotation Yrotation Zrotation
									JOINT mixamorig1:LeftHandRing2
									{
										OFFSET 2.596565 0.032336 0.829819
										CHANNELS 3 Xrotation Yrotation Zrotation
										JOINT mixamorig1:LeftHandRing3
										{
											OFFSET 2.548286 0.044838 0.608398
											CHANNELS 3 Xrotation Yrotation Zrotation
											JOINT mixamorig1:LeftHandRing4
											{
												OFFSET 2.167870 0.038965 0.507812
												CHANNELS 3 Xrotation Yrotation Zrotation
												End Site
												{
													OFFSET 2.167732 0.042114 0.508163
												}
											}
										}
									}
								}
								JOINT mixamorig1:LeftHandPinky1
								{
									OFFSET 11.341652 -2.253323 0.310532
									CHANNELS 3 Xrotation Yrotation Zrotation
									JOINT mixamorig1:LeftHandPinky2
									{
										OFFSET 2.648827 -0.120024 0.669128
										CHANNELS 3 Xrotation Yrotation Zrotation
										JOINT mixamorig1:LeftHandPinky3
										{
											OFFSET 2.075249 -0.105192 0.703857
											CHANNELS 3 Xrotation Yrotation Zrotation
											JOINT mixamorig1:LeftHandPinky4
											{
												OFFSET 1.850784 -0.097376 0.684036
												CHANNELS 3 Xrotation Yrotation Zrotation
												End Site
												{
													OFFSET 1.850731 -0.102854 0.683411
												}
											}
										}
									}
								}
							}
						}
					}
				}
				JOINT mixamorig1:RightShoulder
				{
					OFFSET -6.140133 -1.741387 -12.877823
					CHANNELS 3 Xrotation Yrotation Zrotation
					JOINT mixamorig1:RightArm
					{
						OFFSET -12.545002 0.058123 3.431366
						CHANNELS 3 Xrotation Yrotation Zrotation
						JOINT mixamorig1:RightForeArm
						{
							OFFSET -25.447330 -1.671036 1.876465
							CHANNELS 3 Xrotation Yrotation Zrotation
							JOINT mixamorig1:RightHand
							{
								OFFSET -23.367435 0.912149 -0.877640
								CHANNELS 3 Xrotation Yrotation Zrotation
								JOINT mixamorig1:RightHandThumb1
								{
									OFFSET -3.655281 3.110017 1.787811
									CHANNELS 3 Xrotation Yrotation Zrotation
									JOINT mixamorig1:RightHandThumb2
									{
										OFFSET -2.924309 2.488113 1.430252
										CHANNELS 3 Xrotation Yrotation Zrotation
										JOINT mixamorig1:RightHandThumb3
										{
											OFFSET -2.528549 1.706924 1.776962
											CHANNELS 3 Xrotation Yrotation Zrotation
											JOINT mixamorig1:RightHandThumb4
											{
												OFFSET -2.443375 1.073468 1.162323
												CHANNELS 3 Xrotation Yrotation Zrotation
												End Site
												{
													OFFSET -2.204521 1.472025 1.202744
												}
											}
										}
									}
								}
								JOINT mixamorig1:RightHandIndex1
								{
									OFFSET -11.888382 4.755188 1.247833
									CHANNELS 3 Xrotation Yrotation Zrotation
									JOINT mixamorig1:RightHandIndex2
									{
										OFFSET -3.042244 0.442817 0.516434
										CHANNELS 3 Xrotation Yrotation Zrotation
										JOINT mixamorig1:RightHandIndex3
										{
											OFFSET -2.738869 0.392164 0.708374
											CHANNELS 3 Xrotation Yrotation Zrotation
											JOINT mixamorig1:RightHandIndex4
											{
												OFFSET -2.432571 0.348507 0.620773
												CHANNELS 3 Xrotation Yrotation Zrotation
												End Site
												{
													OFFSET -2.433441 0.343348 0.620270
												}
											}
										}
									}
								}
								JOINT mixamorig1:RightHandMiddle1
								{
									OFFSET -12.008347 2.098396 0.748550
									CHANNELS 3 Xrotation Yrotation Zrotation
									JOINT mixamorig1:RightHandMiddle2
									{
										OFFSET -3.442291 0.287318 0.415817
										CHANNELS 3 Xrotation Yrotation Zrotation
										JOINT mixamorig1:RightHandMiddle3
										{
											OFFSET -3.106178 0.240102 0.837677
											CHANNELS 3 Xrotation Yrotation Zrotation
											JOINT mixamorig1:RightHandMiddle4
											{
												OFFSET -2.855728 0.227592 0.604996
												CHANNELS 3 Xrotation Yrotation Zrotation
												End Site
												{
													OFFSET -2.855972 0.225131 0.604736
												}
											}
										}
									}
								}
								JOINT mixamorig1:RightHandRing1
								{
									OFFSET -12.328026 -0.015787 0.608994
									CHANNELS 3 Xrotation Yrotation Zrotation
									JOINT mixamorig1:RightHandRing2
									{
										OFFSET -2.763496 -0.029507 0.569153
										CHANNELS 3 Xrotation Yrotation Zrotation
										JOINT mixamorig1:RightHandRing3
										{
											OFFSET -2.573975 -0.042469 0.772354
											CHANNELS 3 Xrotation Yrotation Zrotation
											JOINT mixamorig1:RightHandRing4
											{
												OFFSET -2.323860 -0.023427 0.456833
												CHANNELS 3 Xrotation Yrotation Zrotation
												End Site
												{
													OFFSET -2.323814 -0.019363 0.457275
												}
											}
										}
									}
								}
								JOINT mixamorig1:RightHandPinky1
								{
									OFFSET -11.463135 -2.202621 0.329407
									CHANNELS 3 Xrotation Yrotation Zrotation
									JOINT mixamorig1:RightHandPinky2
									{
										OFFSET -2.569016 -0.108848 0.599854
										CHANNELS 3 Xrotation Yrotation Zrotation
										JOINT mixamorig1:RightHandPinky3
										{
											OFFSET -2.016190 -0.102787 0.737000
											CHANNELS 3 Xrotation Yrotation Zrotation
											JOINT mixamorig1:RightHandPinky4
											{
												OFFSET -1.796242 -0.085258 0.576553
												CHANNELS 3 Xrotation Yrotation Zrotation
												End Site
												{
													OFFSET -1.796211 -0.087722 0.576279
												}
											}
										}
									}
								}
							}
						}
					}
				}
			}
		}
	}
	JOINT mixamorig1:LeftUpLeg
	{
		OFFSET 8.078197 -0.535866 5.402374
		CHANNELS 3 Xrotation Yrotation Zrotation
		JOINT mixamorig1:LeftLeg
		{
			OFFSET 3.743074 -2.695465 42.540520
			CHANNELS 3 Xrotation Yrotation Zrotation
			JOINT mixamorig1:LeftFoot
			{
				OFFSET 3.359008 -2.882252 41.940849
				CHANNELS 3 Xrotation Yrotation Zrotation
				JOINT mixamorig1:LeftToeBase
				{
					OFFSET 1.133368 13.321875 9.116440
					CHANNELS 3 Xrotation Yrotation Zrotation
					JOINT mixamorig1:LeftToe_End
					{
						OFFSET 0.591574 6.177378 0.054443
						CHANNELS 3 Xrotation Yrotation Zrotation
						End Site
						{
							OFFSET 0.591574 6.177376 0.054443
						}
					}
				}
			}
		}
	}
	JOINT mixamorig1:RightUpLeg
	{
		OFFSET -8.078202 -0.751774 5.402405
		CHANNELS 3 Xrotation Yrotation Zrotation
		JOINT mixamorig1:RightLeg
		{
			OFFSET -3.743069 -2.464523 42.540482
			CHANNELS 3 Xrotation Yrotation Zrotation
			JOINT mixamorig1:RightFoot
			{
				OFFSET -3.359002 -2.968981 41.940781
				CHANNELS 3 Xrotation Yrotation Zrotation
				JOINT mixamorig1:RightToeBase
				{
					OFFSET -1.133408 13.416486 9.116801
					CHANNELS 3 Xrotation Yrotation Zrotation
					JOINT mixamorig1:RightToe_End
					{
						OFFSET -0.591589 6.151405 0.054615
						CHANNELS 3 Xrotation Yrotation Zrotation
						End Site
						{
							OFFSET -0.591589 6.151402 0.054615
						}
					}
				}
			}
		}
	}
}
MOTION
Frames: 5
Frame Time: 0.033333
-59.050224 -215.950043 -194.031097 -6.268610 -0.342305 2.257601 2.162495 -0.178124 1.010681 0.960720 -0.083875 0.448358 1.681691 -0.141840 0.785517 21.284881 0.926300 0.557951 3.335410 1.534067 1.288933 0.000002 -0.000000 0.000000 8.346705 -10.779490 4.158868 -20.266097 -73.787620 -11.101558 -0.337525 -1.175617 -1.998710 0.032521 -10.293209 3.746699 -0.000002 0.000003 -0.000004 -0.000000 -0.000000 0.000001 -0.000001 0.000003 -0.000003 0.000000 0.000000 -0.000003 0.000001 0.000001 -0.000001 0.000001 0.000001 0.000000 0.000000 -0.000002 -0.000001 -0.000000 -0.000000 -0.000001 0.000001 -0.000001 0.000000 0.000000 0.000002 -0.000001 -0.000001 -0.000001 -0.000000 -0.000001 0.000004 0.000001 0.000001 -0.000000 -0.000000 -0.000001 -0.000002 0.000000 0.000001 0.000001 0.000001 0.000001 0.000000 -0.000001 -0.000000 0.000001 -0.000000 0.000000 -0.000000 0.000000 0.000001 0.000002 -0.000000 -0.000002 0.000001 -0.000001 1.830251 11.080557 -5.129942 24.363730 79.217169 -24.839752 -7.176184 -3.948070 2.061555 6.489082 -3.412901 -0.819606 0.000003 0.000002 -0.000005 -0.000002 0.000001 0.000001 -0.000002 -0.000003 -0.000000 -0.000003 -0.000001 -0.000002 -0.000000 -0.000002 0.000001 -0.000000 0.000000 0.000001 -0.000001 -0.000001 0.000001 0.000002 0.000001 -0.000000 0.000001 0.000001 -0.000000 -0.000001 0.000000 -0.000000 0.000001 0.000001 -0.000001 0.000001 0.000002 0.000000 0.000000 0.000002 -0.000001 -0.000001 -0.000001 -0.000000 -0.000001 0.000001 -0.000000 -0.000000 0.000000 -0.000000 0.000001 0.000001 -0.000000 -0.000000 -0.000002 0.000000 0.000001 0.000000 -0.000000 0.000001 0.000002 0.000000 5.537293 -1.507595 2.039586 7.083079 0.354094 0.145007 -6.006480 1.263265 3.063265 0.000105 0.000929 0.000042 -0.000000 0.000000 0.000000 9.444786 1.536396 3.191126 3.789463 0.009511 0.535492 -6.707639 0.414114 -0.582864 0.000097 -0.000765 -0.000046 -0.000000 -0.000000 -0.000001 
-59.045029 -215.947464 -194.030487 -6.241818 -0.341199 2.249470 2.117964 -0.179741 0.990840 0.940924 -0.084406 0.439550 1.647046 -0.142965 0.770090 21.306118 0.921896 0.575227 3.374820 1.521205 1.319023 -0.000002 0.000000 0.000001 8.425973 -10.774258 4.215401 -20.384568 -73.773563 -11.215664 -0.352219 -1.173907 -2.008939 0.043496 -10.336439 3.730485 -0.000002 -0.000000 -0.000001 -0.000003 0.000003 -0.000000 -0.000001 -0.000000 -0.000005 -0.000002 0.000002 -0.000002 0.000000 0.000000 -0.000001 0.000000 -0.000000 0.000004 0.000001 0.000002 -0.000001 -0.000000 0.000001 0.000001 0.000001 -0.000001 0.000001 0.000001 0.000000 -0.000000 -0.000001 0.000003 -0.000000 -0.000001 0.000004 -0.000000 0.000000 0.000001 0.000001 0.000001 0.000002 -0.000001 0.000001 -0.000002 -0.000000 0.000001 -0.000001 -0.000001 0.000001 -0.000000 -0.000000 0.000000 -0.000000 -0.000000 0.000001 0.000004 -0.000000 -0.000000 0.000001 -0.000000 1.852912 11.103473 -5.154022 24.092664 79.230099 -24.499161 -7.169392 -3.936236 2.068165 6.495086 -3.394672 -0.821762 -0.000003 0.000002 -0.000001 -0.000001 0.000001 0.000006 -0.000002 -0.000002 0.000000 -0.000003 0.000001 -0.000001 -0.000001 0.000001 0.000002 -0.000001 0.000001 0.000002 -0.000002 -0.000001 0.000001 -0.000000 -0.000000 -0.000000 -0.000000 0.000001 0.000000 -0.000001 -0.000002 0.000001 -0.000002 0.000001 0.000000 -0.000001 0.000001 -0.000000 -0.000001 0.000002 0.000000 -0.000000 -0.000001 -0.000000 -0.000000 0.000000 0.000000 -0.000000 0.000000 -0.000000 -0.000001 0.000000 -0.000000 0.000000 -0.000002 -0.000000 -0.000000 -0.000001 -0.000001 -0.000000 -0.000001 -0.000000 5.517301 -1.507413 2.032899 7.071454 0.349976 0.151442 -6.002155 1.267732 3.072036 0.000105 0.000930 0.000038 -0.000000 0.000000 -0.000000 9.424581 1.533459 3.183705 3.780627 0.011969 0.541857 -6.705808 0.416568 -0.575299 0.000094 -0.000765 -0.000032 -0.000000 0.000000 0.000000 
-59.040363 -215.947464 -194.029984 -6.215868 -0.339828 2.253519 2.081997 -0.181280 0.961138 0.924945 -0.084881 0.426356 1.619076 -0.144017 0.746991 21.316387 0.923046 0.593734 3.393825 1.518065 1.353104 -0.000001 0.000000 0.000000 8.473007 -10.770817 4.258652 -20.449076 -73.760381 -11.287223 -0.343338 -1.175429 -2.016808 0.054771 -10.367338 3.719761 -0.000000 0.000003 0.000000 0.000001 -0.000000 0.000001 -0.000004 -0.000001 -0.000000 -0.000001 0.000003 -0.000002 -0.000000 0.000001 0.000001 0.000001 0.000002 0.000001 0.000000 0.000001 -0.000003 0.000000 -0.000000 -0.000001 0.000000 -0.000001 0.000002 0.000001 0.000000 -0.000001 -0.000001 -0.000001 0.000000 0.000000 -0.000001 0.000001 0.000000 -0.000000 0.000001 0.000001 0.000002 0.000001 0.000001 -0.000001 -0.000000 -0.000001 0.000001 -0.000000 -0.000000 0.000001 0.000001 0.000001 -0.000002 -0.000000 0.000000 0.000002 -0.000001 -0.000001 0.000002 -0.000000 1.871492 11.128291 -5.160400 23.696727 79.248711 -24.048835 -7.158664 -3.923323 2.059384 6.502489 -3.357585 -0.829110 0.000000 0.000001 -0.000006 -0.000003 0.000001 0.000003 -0.000003 -0.000005 -0.000000 -0.000003 0.000001 -0.000001 -0.000002 -0.000001 -0.000000 -0.000000 -0.000001 0.000002 -0.000001 -0.000002 0.000001 0.000003 0.000000 -0.000001 0.000001 0.000000 -0.000000 -0.000001 0.000000 0.000000 0.000000 0.000001 0.000001 -0.000000 0.000002 0.000001 -0.000001 0.000003 -0.000000 -0.000001 -0.000001 -0.000000 0.000000 0.000001 -0.000000 -0.000001 -0.000000 -0.000000 0.000000 -0.000001 -0.000000 -0.000001 0.000000 0.000000 -0.000000 0.000002 0.000000 0.000001 0.000000 0.000000 5.495497 -1.506830 2.021298 7.063590 0.342660 0.155483 -5.998525 1.271299 3.076893 0.000111 0.000929 0.000041 0.000000 0.000000 -0.000001 9.400212 1.529744 3.169523 3.776152 0.011934 0.543849 -6.704416 0.419247 -0.567849 0.000088 -0.000766 -0.000031 0.000000 0.000000 0.000000 
-59.036110 -215.948929 -194.029495 -6.190465 -0.338354 2.262904 2.050631 -0.183023 0.926594 0.911018 -0.085437 0.411007 1.594696 -0.145218 0.720128 21.319544 0.928491 0.613375 3.399511 1.522391 1.390587 0.000001 0.000000 0.000000 8.503933 -10.768100 4.294713 -20.484253 -73.747861 -11.335916 -0.326841 -1.178172 -2.021873 0.065583 -10.392505 3.712755 0.000001 0.000001 0.000001 0.000002 0.000001 0.000002 0.000001 0.000001 -0.000002 -0.000001 0.000003 -0.000004 -0.000001 -0.000001 0.000000 -0.000000 0.000002 0.000000 0.000000 -0.000002 -0.000001 -0.000001 -0.000000 -0.000002 0.000001 0.000000 0.000002 0.000002 -0.000001 -0.000001 -0.000001 0.000001 -0.000000 -0.000001 0.000001 0.000000 0.000002 0.000001 0.000002 -0.000001 -0.000001 -0.000000 0.000001 0.000000 -0.000001 0.000000 0.000000 0.000000 -0.000000 0.000001 0.000001 0.000001 -0.000002 0.000000 0.000001 0.000002 -0.000000 -0.000000 0.000004 -0.000000 1.887997 11.154344 -5.158234 23.249599 79.268006 -23.556052 -7.145465 -3.909114 2.042676 6.510820 -3.311998 -0.838870 0.000003 0.000001 -0.000007 0.000003 0.000003 0.000001 -0.000002 0.000000 -0.000005 -0.000001 -0.000001 -0.000002 -0.000000 -0.000001 0.000001 0.000001 0.000001 0.000000 0.000001 -0.000001 -0.000000 -0.000000 -0.000001 -0.000000 0.000000 -0.000000 -0.000001 0.000001 -0.000001 -0.000000 -0.000000 0.000001 -0.000000 -0.000001 0.000002 -0.000000 0.000000 -0.000001 -0.000001 0.000000 -0.000003 -0.000000 -0.000001 -0.000000 -0.000000 0.000000 0.000000 -0.000000 0.000002 0.000000 -0.000000 0.000001 0.000000 0.000000 0.000001 0.000002 0.000000 0.000000 0.000002 0.000000 5.472794 -1.505893 2.007488 7.057550 0.333889 0.158159 -5.995095 1.274237 3.080407 0.000098 0.000933 0.000045 -0.000000 0.000000 -0.000000 9.373702 1.525968 3.152014 3.774200 0.010522 0.543749 -6.703454 0.421947 -0.559850 0.000080 -0.000765 -0.000039 0.000000 -0.000000 0.000000 
-59.030830 -215.951706 -194.029144 -6.166642 -0.336559 2.263880 2.022704 -0.185793 0.900496 0.898605 -0.086500 0.399405 1.572979 -0.147256 0.699828 21.320511 0.938288 0.628143 3.401085 1.536068 1.420438 0.000000 -0.000000 -0.000000 8.536738 -10.766907 4.326476 -20.489661 -73.737602 -11.354349 -0.333242 -1.177865 -2.022033 0.071913 -10.415915 3.710366 -0.000002 0.000000 -0.000004 0.000001 0.000002 -0.000003 -0.000001 -0.000000 -0.000003 -0.000003 0.000000 -0.000005 0.000001 0.000000 0.000001 0.000001 -0.000000 0.000001 0.000000 0.000001 0.000000 -0.000000 0.000003 0.000001 0.000001 -0.000001 0.000001 -0.000000 0.000002 0.000001 -0.000001 0.000000 -0.000001 -0.000000 0.000001 -0.000000 0.000000 0.000001 0.000001 0.000000 0.000001 -0.000001 0.000001 -0.000003 -0.000000 0.000000 0.000002 -0.000000 -0.000000 0.000001 -0.000000 0.000001 -0.000000 -0.000000 -0.000001 -0.000001 -0.000000 -0.000001 0.000002 -0.000000 1.898785 11.176017 -5.165847 22.942424 79.277828 -23.207350 -7.133277 -3.895596 2.038028 6.517173 -3.282948 -0.843137 -0.000000 0.000002 -0.000003 -0.000001 0.000001 0.000006 -0.000003 -0.000002 0.000000 -0.000001 -0.000004 -0.000000 -0.000002 -0.000001 0.000001 -0.000000 -0.000002 0.000003 0.000001 -0.000002 0.000001 -0.000000 0.000001 -0.000000 -0.000000 0.000001 0.000000 -0.000000 0.000000 0.000000 -0.000002 0.000001 0.000000 -0.000001 0.000001 -0.000000 -0.000000 0.000004 0.000000 -0.000000 -0.000001 -0.000000 0.000001 0.000001 -0.000000 0.000000 0.000000 -0.000000 0.000000 0.000001 -0.000000 -0.000000 0.000000 0.000000 0.000000 -0.000001 0.000000 0.000000 0.000002 0.000000 5.449353 -1.506819 1.999820 7.052779 0.328444 0.160193 -5.990731 1.276569 3.086387 0.000120 0.000932 0.000044 -0.000000 0.000000 -0.000001 9.348717 1.522264 3.142201 3.772045 0.009781 0.543994 -6.702272 0.424787 -0.551446 0.000080 -0.000766 -0.000023 0.000000 -0.000000 0.000001 
